<svg width="96" height="96" viewBox="0 0 96 96" xmlns="http://www.w3.org/2000/svg" role="img" aria-label="Geprogan">
  <defs>
    <linearGradient id="g" x1="0" x2="1" y1="0" y2="1">
      <stop offset="0%" stop-color="#2f855a" />
      <stop offset="100%" stop-color="#7dc28c" />
    </linearGradient>
  </defs>
  <rect width="96" height="96" rx="22" fill="#0c1610" />
  <path d="M24 64c4 8 12 12 24 12 16 0 28-10 28-24 0-14-12-24-26-24-6 0-12 2-16 6l10 10h-22V20l8 8c6-6 16-10 26-10 22 0 38 16 38 36 0 20-16 36-40 36-18 0-32-8-38-22z" fill="url(#g)" />
</svg>
